<mxfile host="app.diagrams.net" modified="2021-06-13T06:38:36.994Z" agent="5.0 (Windows NT 10.0; Win64; x64) AppleWebKit/537.36 (KHTML, like Gecko) Chrome/91.0.4472.77 Safari/537.36" etag="68S8ji4pU3v6lRraK_az" version="14.7.5" type="github">
  <diagram id="ZG0kUla_Cm4mdNlMYlvh" name="Page-1">
    <mxGraphModel dx="2062" dy="1160" grid="0" gridSize="10" guides="1" tooltips="1" connect="1" arrows="1" fold="1" page="1" pageScale="1" pageWidth="3300" pageHeight="2339" math="0" shadow="0">
      <root>
        <mxCell id="0" />
        <mxCell id="1" parent="0" />
        <mxCell id="_S2tc8Y2oILsK_Va9KB5-26" value="&lt;font style=&quot;font-size: 24px&quot;&gt;乘数(64位)&lt;/font&gt;" style="rounded=0;whiteSpace=wrap;html=1;" vertex="1" parent="1">
          <mxGeometry x="530" y="298" width="1347" height="48" as="geometry" />
        </mxCell>
        <mxCell id="_S2tc8Y2oILsK_Va9KB5-27" value="" style="shape=curlyBracket;whiteSpace=wrap;html=1;rounded=1;rotation=-90;" vertex="1" parent="1">
          <mxGeometry x="563" y="330" width="20" height="83" as="geometry" />
        </mxCell>
        <mxCell id="_S2tc8Y2oILsK_Va9KB5-29" value="" style="shape=curlyBracket;whiteSpace=wrap;html=1;rounded=1;rotation=-90;" vertex="1" parent="1">
          <mxGeometry x="647" y="330" width="20" height="83" as="geometry" />
        </mxCell>
        <mxCell id="_S2tc8Y2oILsK_Va9KB5-30" value="" style="shape=curlyBracket;whiteSpace=wrap;html=1;rounded=1;rotation=-90;" vertex="1" parent="1">
          <mxGeometry x="731" y="330" width="20" height="83" as="geometry" />
        </mxCell>
        <mxCell id="_S2tc8Y2oILsK_Va9KB5-31" value="" style="shape=curlyBracket;whiteSpace=wrap;html=1;rounded=1;rotation=-90;" vertex="1" parent="1">
          <mxGeometry x="815" y="330" width="20" height="83" as="geometry" />
        </mxCell>
        <mxCell id="_S2tc8Y2oILsK_Va9KB5-32" value="" style="shape=curlyBracket;whiteSpace=wrap;html=1;rounded=1;rotation=-90;" vertex="1" parent="1">
          <mxGeometry x="899" y="330" width="20" height="83" as="geometry" />
        </mxCell>
        <mxCell id="_S2tc8Y2oILsK_Va9KB5-33" value="" style="shape=curlyBracket;whiteSpace=wrap;html=1;rounded=1;rotation=-90;" vertex="1" parent="1">
          <mxGeometry x="983" y="330" width="20" height="83" as="geometry" />
        </mxCell>
        <mxCell id="_S2tc8Y2oILsK_Va9KB5-35" value="" style="shape=curlyBracket;whiteSpace=wrap;html=1;rounded=1;rotation=-90;" vertex="1" parent="1">
          <mxGeometry x="1067" y="330" width="20" height="83" as="geometry" />
        </mxCell>
        <mxCell id="_S2tc8Y2oILsK_Va9KB5-36" value="" style="shape=curlyBracket;whiteSpace=wrap;html=1;rounded=1;rotation=-90;" vertex="1" parent="1">
          <mxGeometry x="1151" y="330" width="20" height="83" as="geometry" />
        </mxCell>
        <mxCell id="_S2tc8Y2oILsK_Va9KB5-39" value="" style="shape=curlyBracket;whiteSpace=wrap;html=1;rounded=1;rotation=-90;" vertex="1" parent="1">
          <mxGeometry x="1655" y="332" width="20" height="83" as="geometry" />
        </mxCell>
        <mxCell id="_S2tc8Y2oILsK_Va9KB5-44" value="&lt;font style=&quot;font-size: 24px&quot;&gt;1&lt;/font&gt;" style="ellipse;whiteSpace=wrap;html=1;aspect=fixed;" vertex="1" parent="1">
          <mxGeometry x="543.5" y="396" width="59" height="59" as="geometry" />
        </mxCell>
        <mxCell id="_S2tc8Y2oILsK_Va9KB5-45" value="&lt;font style=&quot;font-size: 24px&quot;&gt;2&lt;/font&gt;" style="ellipse;whiteSpace=wrap;html=1;aspect=fixed;" vertex="1" parent="1">
          <mxGeometry x="627.5" y="396" width="59" height="59" as="geometry" />
        </mxCell>
        <mxCell id="_S2tc8Y2oILsK_Va9KB5-46" value="&lt;font style=&quot;font-size: 24px&quot;&gt;3&lt;/font&gt;" style="ellipse;whiteSpace=wrap;html=1;aspect=fixed;" vertex="1" parent="1">
          <mxGeometry x="711.5" y="396" width="59" height="59" as="geometry" />
        </mxCell>
        <mxCell id="_S2tc8Y2oILsK_Va9KB5-47" value="&lt;font style=&quot;font-size: 24px&quot;&gt;4&lt;/font&gt;" style="ellipse;whiteSpace=wrap;html=1;aspect=fixed;" vertex="1" parent="1">
          <mxGeometry x="795.5" y="396" width="59" height="59" as="geometry" />
        </mxCell>
        <mxCell id="_S2tc8Y2oILsK_Va9KB5-48" value="&lt;font style=&quot;font-size: 24px&quot;&gt;5&lt;/font&gt;" style="ellipse;whiteSpace=wrap;html=1;aspect=fixed;" vertex="1" parent="1">
          <mxGeometry x="879.5" y="393" width="59" height="59" as="geometry" />
        </mxCell>
        <mxCell id="_S2tc8Y2oILsK_Va9KB5-49" value="&lt;font style=&quot;font-size: 24px&quot;&gt;6&lt;/font&gt;" style="ellipse;whiteSpace=wrap;html=1;aspect=fixed;" vertex="1" parent="1">
          <mxGeometry x="963.5" y="396" width="59" height="59" as="geometry" />
        </mxCell>
        <mxCell id="_S2tc8Y2oILsK_Va9KB5-50" value="&lt;font style=&quot;font-size: 24px&quot;&gt;7&lt;/font&gt;" style="ellipse;whiteSpace=wrap;html=1;aspect=fixed;" vertex="1" parent="1">
          <mxGeometry x="1050" y="396" width="59" height="59" as="geometry" />
        </mxCell>
        <mxCell id="_S2tc8Y2oILsK_Va9KB5-51" value="&lt;font style=&quot;font-size: 24px&quot;&gt;8&lt;/font&gt;" style="ellipse;whiteSpace=wrap;html=1;aspect=fixed;" vertex="1" parent="1">
          <mxGeometry x="1131.5" y="396" width="59" height="59" as="geometry" />
        </mxCell>
        <mxCell id="_S2tc8Y2oILsK_Va9KB5-52" value="&lt;font style=&quot;font-size: 24px&quot;&gt;9&lt;/font&gt;" style="ellipse;whiteSpace=wrap;html=1;aspect=fixed;" vertex="1" parent="1">
          <mxGeometry x="1215.5" y="396" width="59" height="59" as="geometry" />
        </mxCell>
        <mxCell id="_S2tc8Y2oILsK_Va9KB5-53" value="&lt;font style=&quot;font-size: 24px&quot;&gt;16&lt;/font&gt;" style="ellipse;whiteSpace=wrap;html=1;aspect=fixed;" vertex="1" parent="1">
          <mxGeometry x="1806" y="396" width="59" height="59" as="geometry" />
        </mxCell>
        <mxCell id="_S2tc8Y2oILsK_Va9KB5-54" value="&lt;font style=&quot;font-size: 24px&quot;&gt;15&lt;/font&gt;" style="ellipse;whiteSpace=wrap;html=1;aspect=fixed;" vertex="1" parent="1">
          <mxGeometry x="1724" y="396" width="59" height="59" as="geometry" />
        </mxCell>
        <mxCell id="_S2tc8Y2oILsK_Va9KB5-56" value="" style="shape=curlyBracket;whiteSpace=wrap;html=1;rounded=1;rotation=-90;" vertex="1" parent="1">
          <mxGeometry x="694" y="327" width="20" height="313" as="geometry" />
        </mxCell>
        <mxCell id="_S2tc8Y2oILsK_Va9KB5-57" value="" style="shape=curlyBracket;whiteSpace=wrap;html=1;rounded=1;rotation=-90;" vertex="1" parent="1">
          <mxGeometry x="1030" y="327" width="20" height="313" as="geometry" />
        </mxCell>
        <mxCell id="_S2tc8Y2oILsK_Va9KB5-61" value="&lt;font style=&quot;font-size: 24px&quot;&gt;1&#39;&lt;/font&gt;" style="ellipse;whiteSpace=wrap;html=1;aspect=fixed;" vertex="1" parent="1">
          <mxGeometry x="677" y="510" width="59" height="59" as="geometry" />
        </mxCell>
        <mxCell id="_S2tc8Y2oILsK_Va9KB5-62" value="&lt;font style=&quot;font-size: 24px&quot;&gt;2&#39;&lt;/font&gt;" style="ellipse;whiteSpace=wrap;html=1;aspect=fixed;" vertex="1" parent="1">
          <mxGeometry x="1010.5" y="512" width="59" height="59" as="geometry" />
        </mxCell>
        <mxCell id="_S2tc8Y2oILsK_Va9KB5-63" value="" style="shape=curlyBracket;whiteSpace=wrap;html=1;rounded=1;rotation=-90;" vertex="1" parent="1">
          <mxGeometry x="1235" y="330" width="20" height="83" as="geometry" />
        </mxCell>
        <mxCell id="_S2tc8Y2oILsK_Va9KB5-64" value="" style="shape=curlyBracket;whiteSpace=wrap;html=1;rounded=1;rotation=-90;" vertex="1" parent="1">
          <mxGeometry x="1318" y="330" width="20" height="83" as="geometry" />
        </mxCell>
        <mxCell id="_S2tc8Y2oILsK_Va9KB5-65" value="" style="shape=curlyBracket;whiteSpace=wrap;html=1;rounded=1;rotation=-90;" vertex="1" parent="1">
          <mxGeometry x="1402" y="330" width="20" height="83" as="geometry" />
        </mxCell>
        <mxCell id="_S2tc8Y2oILsK_Va9KB5-66" value="" style="shape=curlyBracket;whiteSpace=wrap;html=1;rounded=1;rotation=-90;" vertex="1" parent="1">
          <mxGeometry x="1486" y="332" width="20" height="83" as="geometry" />
        </mxCell>
        <mxCell id="_S2tc8Y2oILsK_Va9KB5-67" value="" style="shape=curlyBracket;whiteSpace=wrap;html=1;rounded=1;rotation=-90;" vertex="1" parent="1">
          <mxGeometry x="1570" y="332" width="20" height="83" as="geometry" />
        </mxCell>
        <mxCell id="_S2tc8Y2oILsK_Va9KB5-69" value="" style="shape=curlyBracket;whiteSpace=wrap;html=1;rounded=1;rotation=-90;size=0.5;" vertex="1" parent="1">
          <mxGeometry x="1738" y="332" width="20" height="83" as="geometry" />
        </mxCell>
        <mxCell id="_S2tc8Y2oILsK_Va9KB5-70" value="" style="shape=curlyBracket;whiteSpace=wrap;html=1;rounded=1;rotation=-90;" vertex="1" parent="1">
          <mxGeometry x="1821" y="330" width="20" height="83" as="geometry" />
        </mxCell>
        <mxCell id="_S2tc8Y2oILsK_Va9KB5-71" value="&lt;font style=&quot;font-size: 24px&quot;&gt;10&lt;/font&gt;" style="ellipse;whiteSpace=wrap;html=1;aspect=fixed;" vertex="1" parent="1">
          <mxGeometry x="1298.5" y="396" width="59" height="59" as="geometry" />
        </mxCell>
        <mxCell id="_S2tc8Y2oILsK_Va9KB5-72" value="&lt;font style=&quot;font-size: 24px&quot;&gt;11&lt;/font&gt;" style="ellipse;whiteSpace=wrap;html=1;aspect=fixed;" vertex="1" parent="1">
          <mxGeometry x="1382.5" y="396" width="59" height="59" as="geometry" />
        </mxCell>
        <mxCell id="_S2tc8Y2oILsK_Va9KB5-73" value="&lt;font style=&quot;font-size: 24px&quot;&gt;12&lt;/font&gt;" style="ellipse;whiteSpace=wrap;html=1;aspect=fixed;" vertex="1" parent="1">
          <mxGeometry x="1471" y="396" width="59" height="59" as="geometry" />
        </mxCell>
        <mxCell id="_S2tc8Y2oILsK_Va9KB5-74" value="&lt;font style=&quot;font-size: 24px&quot;&gt;13&lt;/font&gt;" style="ellipse;whiteSpace=wrap;html=1;aspect=fixed;" vertex="1" parent="1">
          <mxGeometry x="1556" y="396" width="59" height="59" as="geometry" />
        </mxCell>
        <mxCell id="_S2tc8Y2oILsK_Va9KB5-75" value="&lt;font style=&quot;font-size: 24px&quot;&gt;14&lt;/font&gt;" style="ellipse;whiteSpace=wrap;html=1;aspect=fixed;" vertex="1" parent="1">
          <mxGeometry x="1638" y="396" width="59" height="59" as="geometry" />
        </mxCell>
        <mxCell id="_S2tc8Y2oILsK_Va9KB5-76" value="" style="shape=curlyBracket;whiteSpace=wrap;html=1;rounded=1;rotation=-90;" vertex="1" parent="1">
          <mxGeometry x="1371" y="330" width="20" height="313" as="geometry" />
        </mxCell>
        <mxCell id="_S2tc8Y2oILsK_Va9KB5-77" value="" style="shape=curlyBracket;whiteSpace=wrap;html=1;rounded=1;rotation=-90;" vertex="1" parent="1">
          <mxGeometry x="1706" y="330" width="20" height="313" as="geometry" />
        </mxCell>
        <mxCell id="_S2tc8Y2oILsK_Va9KB5-78" value="&lt;font style=&quot;font-size: 24px&quot;&gt;3&#39;&lt;/font&gt;" style="ellipse;whiteSpace=wrap;html=1;aspect=fixed;" vertex="1" parent="1">
          <mxGeometry x="1355" y="512" width="59" height="59" as="geometry" />
        </mxCell>
        <mxCell id="_S2tc8Y2oILsK_Va9KB5-79" value="&lt;font style=&quot;font-size: 24px&quot;&gt;4&#39;&lt;/font&gt;" style="ellipse;whiteSpace=wrap;html=1;aspect=fixed;" vertex="1" parent="1">
          <mxGeometry x="1691" y="510" width="59" height="59" as="geometry" />
        </mxCell>
        <mxCell id="_S2tc8Y2oILsK_Va9KB5-80" value="" style="shape=curlyBracket;whiteSpace=wrap;html=1;rounded=1;rotation=-90;" vertex="1" parent="1">
          <mxGeometry x="1205" y="79" width="20" height="1053" as="geometry" />
        </mxCell>
        <mxCell id="_S2tc8Y2oILsK_Va9KB5-81" value="&lt;span style=&quot;font-size: 24px&quot;&gt;结果&lt;/span&gt;" style="ellipse;whiteSpace=wrap;html=1;aspect=fixed;" vertex="1" parent="1">
          <mxGeometry x="1185.5" y="630" width="59" height="59" as="geometry" />
        </mxCell>
        <mxCell id="_S2tc8Y2oILsK_Va9KB5-82" value="" style="rounded=1;whiteSpace=wrap;html=1;fillColor=none;strokeWidth=3;strokeColor=#FF389C;" vertex="1" parent="1">
          <mxGeometry x="500" y="258" width="1438" height="206" as="geometry" />
        </mxCell>
        <mxCell id="_S2tc8Y2oILsK_Va9KB5-83" value="" style="rounded=1;whiteSpace=wrap;html=1;fillColor=none;strokeWidth=3;strokeColor=#3333FF;" vertex="1" parent="1">
          <mxGeometry x="522" y="389" width="1364" height="186" as="geometry" />
        </mxCell>
        <mxCell id="_S2tc8Y2oILsK_Va9KB5-84" value="" style="rounded=1;whiteSpace=wrap;html=1;fillColor=none;strokeWidth=3;strokeColor=#FF00FF;" vertex="1" parent="1">
          <mxGeometry x="655" y="497" width="1113" height="228" as="geometry" />
        </mxCell>
        <mxCell id="_S2tc8Y2oILsK_Va9KB5-86" value="&lt;font style=&quot;font-size: 24px&quot;&gt;周期1：乘数每4位一组&lt;br&gt;处理得到16个结果&lt;/font&gt;" style="whiteSpace=wrap;html=1;shape=mxgraph.basic.oval_callout;strokeWidth=3;fillColor=none;strokeColor=#FF389C;" vertex="1" parent="1">
          <mxGeometry x="1944" y="218" width="315" height="138" as="geometry" />
        </mxCell>
        <mxCell id="_S2tc8Y2oILsK_Va9KB5-87" value="&lt;font style=&quot;font-size: 24px&quot;&gt;周期2：第一个周期结果&lt;br&gt;每4个一组处理得到4个结果&lt;br&gt;&lt;/font&gt;" style="whiteSpace=wrap;html=1;shape=mxgraph.basic.oval_callout;strokeWidth=3;fillColor=none;strokeColor=#3333FF;" vertex="1" parent="1">
          <mxGeometry x="1929" y="398" width="390" height="157" as="geometry" />
        </mxCell>
        <mxCell id="_S2tc8Y2oILsK_Va9KB5-88" value="&lt;font style=&quot;font-size: 24px&quot;&gt;周期3：第二个周期结果&lt;br&gt;每4个一组处理得到1个结果&lt;br&gt;&lt;/font&gt;" style="whiteSpace=wrap;html=1;shape=mxgraph.basic.oval_callout;strokeWidth=3;fillColor=none;strokeColor=#3333FF;" vertex="1" parent="1">
          <mxGeometry x="1779" y="563" width="390" height="157" as="geometry" />
        </mxCell>
      </root>
    </mxGraphModel>
  </diagram>
</mxfile>
